<?xml version="1.0" encoding="utf-8"?>
<!-- Generator: Adobe Illustrator 27.1.1, SVG Export Plug-In . SVG Version: 6.00 Build 0)  -->
<svg version="1.1" id="Layer_1" xmlns="http://www.w3.org/2000/svg" xmlns:xlink="http://www.w3.org/1999/xlink" x="0px" y="0px"
	 viewBox="0 0 89 30" style="enable-background:new 0 0 89 30;" xml:space="preserve">
<style type="text/css">
	.st0{fill:#FFFFFF;}
</style>
<g id="Layer_1-2">
	<g>
		<g>
			<path class="st0" d="M45.7,10.5c0,2.3-1.6,3.5-3.3,3.5c-1.9,0-3.4-1.6-3.4-3.5S40.5,7,42.4,7c1.3,0,2.3,0.8,2.8,1.5L44.3,9
				c-0.4-0.6-1-1-1.8-1C41.1,8,40,9.1,40,10.5c0,1.4,1,2.5,2.4,2.5c1,0,2-0.6,2.1-1.7h-2v-0.8L45.7,10.5L45.7,10.5z"/>
			<path class="st0" d="M50.5,13v0.9h-3.7V7.1h1V13H50.5z"/>
			<path class="st0" d="M50.9,10.5c0-1.9,1.5-3.5,3.4-3.5s3.4,1.5,3.4,3.5S56.2,14,54.3,14S50.9,12.4,50.9,10.5L50.9,10.5z
				 M56.7,10.5c0-1.4-1.1-2.5-2.4-2.5s-2.4,1.1-2.4,2.5S53,13,54.3,13S56.7,11.9,56.7,10.5z"/>
			<path class="st0" d="M63.8,12c0,1-0.7,1.9-2,1.9H59V7.1h2.6c1.2,0,1.9,0.7,1.9,1.7c0,0.6-0.2,1.2-0.9,1.4
				C63.4,10.5,63.8,11.2,63.8,12L63.8,12z M61.4,8H60v1.9h1.5c0.5,0,0.8-0.4,0.8-1C62.4,8.4,62,8.1,61.4,8L61.4,8z M62.8,11.9
				c0-0.6-0.4-1.1-1.1-1.1H60V13h1.6C62.3,13,62.8,12.5,62.8,11.9L62.8,11.9z"/>
			<path class="st0" d="M68.7,12.2h-2.8l-0.6,1.7h-1.1l2.5-6.8h1.1l2.5,6.8h-1.1L68.7,12.2z M68.4,11.3l-1.1-3l-1.1,3H68.4z"/>
			<path class="st0" d="M75,13v0.9h-3.7V7.1h1V13H75L75,13z"/>
			<path class="st0" d="M43.1,22v0.9h-3.7v-6.8h1V22H43.1z"/>
			<path class="st0" d="M45.6,16.1h1v6.8h-1V16.1z"/>
			<path class="st0" d="M54.2,16.1l-2,6.8h-1l-2.1-6.8h1.1l1.5,5.2l1.4-5.2H54.2L54.2,16.1z"/>
			<path class="st0" d="M56.6,16.1h1v6.8h-1V16.1z"/>
			<path class="st0" d="M65.6,16.1v6.8h-1L61.7,18v4.9h-1v-6.8h1l2.9,4.9v-4.9H65.6L65.6,16.1z"/>
			<path class="st0" d="M74.9,19.5c0,2.3-1.6,3.5-3.3,3.5c-1.9,0-3.4-1.6-3.4-3.5s1.5-3.5,3.4-3.5c1.3,0,2.3,0.8,2.8,1.5L73.6,18
				c-0.4-0.6-1-1-1.8-1c-1.4,0-2.4,1.1-2.4,2.5c0,1.4,1,2.5,2.4,2.5c1,0,2-0.6,2.1-1.7h-2v-0.8C71.8,19.5,74.9,19.5,74.9,19.5z"/>
		</g>
		<g>
			<g>
				<polygon class="st0" points="19,27.3 19.5,23.8 23.1,26.5 23.8,27.1 23,27.4 22.3,26.9 22.2,26.9 20.1,25.2 19.8,27 				"/>
				<polygon class="st0" points="17.3,29.8 18.5,21.2 25.3,26.5 24.4,26.9 23.7,26.3 19.1,22.7 18.3,28.5 18.9,28.2 19.7,27.9 
					20.3,27.7 20.5,26.2 21.2,26.7 21,28.3 21,28.3 18.8,29.2 				"/>
			</g>
			<g>
				<polygon class="st0" points="26.8,21.5 24.7,18.7 29.1,18.1 30.1,18 29.7,18.8 28.8,18.9 28.8,18.9 26.1,19.3 27.2,20.7 				"/>
				<polygon class="st0" points="27.3,24.5 22.1,17.6 30.7,16.5 30.3,17.4 29.4,17.5 23.6,18.2 27.1,22.9 27.4,22.2 27.7,21.4 
					28,20.9 27.1,19.7 27.9,19.6 28.9,20.8 28.9,20.8 28,23 				"/>
			</g>
			<g>
				<polygon class="st0" points="28.2,11.9 24.7,11.4 27.4,7.8 28,7.1 28.4,7.9 27.8,8.6 27.8,8.7 26.1,10.8 27.9,11.1 				"/>
				<polygon class="st0" points="30.7,13.6 22.1,12.5 27.4,5.6 27.8,6.5 27.2,7.2 23.6,11.8 29.4,12.6 29.2,12 28.8,11.2 28.6,10.6 
					27.1,10.4 27.6,9.7 29.2,9.9 29.2,9.9 30.1,12.1 				"/>
			</g>
			<g>
				<polygon class="st0" points="22.4,4.1 19.6,6.2 19,1.8 18.9,0.8 19.7,1.2 19.8,2.1 19.8,2.1 20.2,4.8 21.6,3.7 				"/>
				<polygon class="st0" points="25.4,3.6 18.5,8.8 17.4,0.2 18.3,0.6 18.4,1.5 19.1,7.3 23.8,3.8 23.2,3.5 22.3,3.2 21.8,2.9 
					20.6,3.8 20.5,3 21.7,2 21.7,2 23.9,2.9 				"/>
			</g>
			<g>
				<polygon class="st0" points="12.8,2.7 12.3,6.2 8.8,3.5 8,2.9 8.8,2.6 9.5,3.1 9.6,3.1 11.7,4.8 12,3 				"/>
				<polygon class="st0" points="14.5,0.2 13.4,8.8 6.5,3.5 7.4,3.1 8.1,3.7 12.7,7.3 13.5,1.5 12.9,1.8 12.1,2.1 11.5,2.3 
					11.3,3.8 10.6,3.3 10.9,1.7 10.9,1.7 13,0.8 				"/>
			</g>
			<g>
				<polygon class="st0" points="5,8.5 7.2,11.3 2.7,11.9 1.8,12 2.1,11.2 3,11.1 3,11.1 5.7,10.7 4.7,9.3 				"/>
				<polygon class="st0" points="4.5,5.5 9.7,12.4 1.1,13.5 1.5,12.6 2.4,12.5 8.2,11.8 4.7,7.1 4.4,7.8 4.1,8.6 3.8,9.1 4.7,10.3 
					3.9,10.4 2.9,9.2 2.9,9.2 3.9,7 				"/>
			</g>
			<g>
				<polygon class="st0" points="3.6,18.1 7.1,18.6 4.4,22.2 3.8,22.9 3.5,22.1 4,21.4 4,21.3 5.7,19.2 3.9,18.9 				"/>
				<polygon class="st0" points="1.1,16.4 9.7,17.5 4.4,24.4 4,23.5 4.6,22.8 8.2,18.2 2.4,17.4 2.7,18 3,18.8 3.2,19.4 4.7,19.6 
					4.2,20.3 2.6,20.1 2.6,20.1 1.7,17.9 				"/>
			</g>
			<g>
				<polygon class="st0" points="9.4,25.9 12.2,23.8 12.8,28.2 12.9,29.2 12.1,28.8 12,27.9 12,27.9 11.7,25.2 10.2,26.3 				"/>
				<polygon class="st0" points="6.4,26.4 13.3,21.2 14.4,29.8 13.5,29.4 13.4,28.5 12.7,22.7 8.1,26.2 8.7,26.5 9.5,26.8 
					10.1,27.1 11.2,26.2 11.3,27 10.1,28 10.1,28 7.9,27.1 				"/>
			</g>
		</g>
	</g>
</g>
</svg>
