<?xml version="1.0" encoding="UTF-8"?><svg id="Layer_2" xmlns="http://www.w3.org/2000/svg" viewBox="0 0 383.62 164"><defs><style>.cls-1{fill:#fff;}</style></defs><g id="Layer_1-2"><g><g><path class="cls-1" d="m225.19,57.67c0,12.59-8.51,18.88-17.57,18.88-10.52,0-18.38-8.41-18.38-18.68s8.21-18.83,18.53-18.83c7.15,0,12.49,4.08,14.9,8.16l-4.83,2.32c-2.06-3.07-5.54-5.29-9.92-5.29-7.3,0-13.09,5.89-13.09,13.64,0,7.35,5.19,13.49,12.89,13.49,5.44,0,10.77-3.07,11.53-9.11h-10.77v-4.58h16.71Z"/><path class="cls-1" d="m251.31,71.11v4.93h-20.14v-36.5h5.59v31.57h14.55Z"/><path class="cls-1" d="m253.43,57.82c0-10.22,8.06-18.78,18.48-18.78s18.48,8.36,18.48,18.73-8.31,18.78-18.48,18.78-18.48-8.46-18.48-18.73Zm31.42,0c0-7.35-5.74-13.24-12.99-13.24s-12.84,5.94-12.84,13.24,5.69,13.14,12.84,13.14,12.99-5.79,12.99-13.14Z"/><path class="cls-1" d="m323.2,65.83c0,5.39-3.78,10.22-10.87,10.22h-15.15v-36.5h13.85c6.29,0,10.22,3.68,10.22,9.26,0,3.17-1.31,6.6-4.83,7.75,4.68.91,6.8,5.19,6.8,9.26Zm-12.84-21.35h-7.6v10.17h8.26c2.72,0,4.53-2.11,4.53-5.13,0-3.17-1.96-5.03-5.18-5.03Zm7.05,20.74c0-3.02-1.96-5.84-6.14-5.84h-8.51v11.73h8.81c3.37,0,5.84-2.47,5.84-5.89Z"/><path class="cls-1" d="m349.54,66.89h-15.05l-3.27,9.16h-5.89l13.69-36.5h5.99l13.69,36.5h-5.84l-3.32-9.16Zm-1.76-4.83l-5.84-16.01-5.74,16.01h11.58Z"/><path class="cls-1" d="m383.62,71.11v4.93h-20.14v-36.5h5.59v31.57h14.55Z"/><path class="cls-1" d="m211.54,119.52v4.93h-20.14v-36.5h5.59v31.57h14.55Z"/><path class="cls-1" d="m224.93,87.96h5.54v36.5h-5.54v-36.5Z"/><path class="cls-1" d="m271.05,87.96l-11.03,36.5h-5.24l-11.08-36.5h5.74l7.95,27.84,7.8-27.84h5.84Z"/><path class="cls-1" d="m284.29,87.96h5.54v36.5h-5.54v-36.5Z"/><path class="cls-1" d="m332.82,87.96v36.5h-5.14l-15.81-26.38v26.38h-5.54v-36.5h5.24l15.71,26.38v-26.38h5.54Z"/><path class="cls-1" d="m383.11,106.08c0,12.59-8.51,18.88-17.57,18.88-10.52,0-18.38-8.41-18.38-18.68s8.21-18.83,18.53-18.83c7.15,0,12.49,4.08,14.9,8.16l-4.83,2.32c-2.06-3.07-5.54-5.29-9.92-5.29-7.3,0-13.09,5.89-13.09,13.64,0,7.35,5.19,13.49,12.89,13.49,5.44,0,10.77-3.07,11.53-9.11h-10.77v-4.58h16.71Z"/></g><g><g><polygon class="cls-1" points="99.3 150.33 101.96 130.74 121.68 146 125.82 149.2 121.3 151.05 117.44 148.07 117.16 147.85 105.17 138.57 103.82 148.48 99.3 150.33"/><polygon class="cls-1" points="89.67 164 96.12 116.47 134.06 145.83 129.21 147.81 125.07 144.61 99.56 124.86 95.22 156.83 98.61 155.45 103.13 153.59 106.36 152.27 107.46 144.13 111.22 147.04 110.05 155.66 110.04 155.66 97.91 160.63 89.67 164"/></g><g><polygon class="cls-1" points="142.55 118.08 130.58 102.35 155.31 99.2 160.5 98.54 158.61 103.04 153.77 103.66 153.42 103.71 138.38 105.62 144.44 113.58 142.55 118.08"/><polygon class="cls-1" points="145.41 134.56 116.36 96.39 163.94 90.32 161.92 95.15 156.73 95.81 124.72 99.9 144.26 125.57 145.68 122.19 147.56 117.69 148.91 114.47 143.94 107.93 148.65 107.33 153.92 114.26 153.91 114.26 148.85 126.36 145.41 134.56"/></g><g><polygon class="cls-1" points="150.33 64.7 130.74 62.04 146 42.33 149.2 38.19 151.05 42.71 148.07 46.57 147.85 46.85 138.57 58.84 148.48 60.18 150.33 64.7"/><polygon class="cls-1" points="164 74.33 116.47 67.88 145.83 29.95 147.81 34.79 144.61 38.93 124.86 64.45 156.83 68.79 155.45 65.39 153.59 60.87 152.27 57.64 144.13 56.54 147.04 52.79 155.66 53.96 155.66 53.96 160.63 66.1 164 74.33"/></g><g><polygon class="cls-1" points="118.08 21.45 102.35 33.42 99.2 8.7 98.54 3.5 103.04 5.39 103.66 10.23 103.71 10.58 105.62 25.62 113.58 19.57 118.08 21.45"/><polygon class="cls-1" points="134.56 18.6 96.39 47.64 90.32 .06 95.15 2.09 95.81 7.28 99.9 39.28 125.57 19.74 122.19 18.33 117.69 16.44 114.47 15.09 107.93 20.06 107.33 15.36 114.26 10.09 114.26 10.09 126.36 15.16 134.56 18.6"/></g><g><polygon class="cls-1" points="64.7 13.67 62.04 33.26 42.33 18.01 38.19 14.8 42.71 12.95 46.57 15.94 46.85 16.15 58.84 25.43 60.18 15.53 64.7 13.67"/><polygon class="cls-1" points="74.33 0 67.88 47.53 29.95 18.18 34.79 16.2 38.93 19.4 64.45 39.14 68.79 7.17 65.39 8.56 60.87 10.41 57.64 11.73 56.54 19.87 52.79 16.97 53.96 8.35 53.96 8.34 66.1 3.37 74.33 0"/></g><g><polygon class="cls-1" points="21.45 45.92 33.42 61.65 8.7 64.81 3.5 65.47 5.39 60.96 10.23 60.34 10.58 60.3 25.62 58.38 19.57 50.43 21.45 45.92"/><polygon class="cls-1" points="18.6 29.44 47.64 67.61 .06 73.68 2.09 68.85 7.28 68.19 39.28 64.11 19.74 38.43 18.33 41.81 16.44 46.32 15.09 49.54 20.06 56.07 15.36 56.67 10.09 49.75 10.09 49.74 15.16 37.65 18.6 29.44"/></g><g><polygon class="cls-1" points="13.67 99.3 33.26 101.96 18.01 121.68 14.8 125.82 12.95 121.3 15.94 117.44 16.15 117.16 25.43 105.17 15.53 103.82 13.67 99.3"/><polygon class="cls-1" points="0 89.67 47.53 96.12 18.18 134.06 16.2 129.21 19.4 125.07 39.14 99.56 7.17 95.22 8.56 98.61 10.41 103.13 11.73 106.36 19.87 107.46 16.97 111.22 8.35 110.05 8.34 110.04 3.37 97.91 0 89.67"/></g><g><polygon class="cls-1" points="45.92 142.55 61.65 130.58 64.81 155.31 65.47 160.5 60.96 158.61 60.34 153.77 60.3 153.42 58.38 138.38 50.43 144.44 45.92 142.55"/><polygon class="cls-1" points="29.44 145.41 67.61 116.36 73.68 163.94 68.85 161.92 68.19 156.73 64.11 124.72 38.43 144.26 41.81 145.68 46.32 147.56 49.54 148.91 56.07 143.94 56.67 148.65 49.75 153.92 49.74 153.91 37.65 148.85 29.44 145.41"/></g></g></g></g></svg>